<svg xmlns="http://www.w3.org/2000/svg" id="Group_1079" width="235.942" height="52.297" data-name="Group 1079" viewBox="0 0 235.942 52.297">
    <defs>
        <style>
            .cls-1{fill:#fff}
        </style>
    </defs>
    <path id="Path_564" d="M106.284 14.7h21.839V-5.7h-21.839zm-8.632-30.837h39.082a4.735 4.735 0 0 1 3.639 3.37V14.7h4.24v10.43H97.652a4.657 4.657 0 0 1-3.722-3.793V-12.32a4.665 4.665 0 0 1 3.722-3.817" class="cls-1" data-name="Path 564" transform="translate(-29.844 21.655)"/>
    <g id="Group_1074" data-name="Group 1074" transform="translate(120.282 5.516)">
        <path id="Path_565" d="M0 0h12.354v30.838h21.732V0h12.357v37.474a4.667 4.667 0 0 1-3.743 3.793H3.722A4.664 4.664 0 0 1 0 37.474z" class="cls-1" data-name="Path 565"/>
    </g>
    <path id="Path_566" d="M130.355-16.137h12.354V25.13h-12.354z" class="cls-1" data-name="Path 566" transform="translate(41.592 21.655)"/>
    <g id="Group_1075" data-name="Group 1075" transform="translate(189.499 5.516)">
        <path id="Path_567" d="M0 0h15.016l19.07 23.689V0h12.357v41.267l-13.852-.1-20.237-25.094v25.194H0z" class="cls-1" data-name="Path 567"/>
    </g>
    <g id="Group_1076" data-name="Group 1076">
        <path id="Path_568" d="M26.4 17.321a14.989 14.989 0 0 1-9.094 13.9V16.323a.649.649 0 0 0-.663-.634h-9.52a.651.651 0 0 0-.666.634v14.9a14.99 14.99 0 0 1-9.088-13.511.4.4 0 0 0 .018-.1v-1.09A14.723 14.723 0 0 1 11.879 2.343 14.754 14.754 0 0 1 26.4 17.321m10.826 0c0-14.442-11.344-26.153-25.345-26.153H-12.8a.605.605 0 0 0-.663.524v25.969A25.977 25.977 0 0 0 6.457 42.87v-.047a.138.138 0 0 0 .018.068c.435.095.874.175 1.324.249a25.759 25.759 0 0 0 8.167 0c.45-.074.888-.154 1.324-.249a.212.212 0 0 0 .015-.062v.041a25.979 25.979 0 0 0 19.92-25.549" class="cls-1" data-name="Path 568" transform="translate(13.46 8.832)"/>
    </g>
</svg>
