<svg xmlns="http://www.w3.org/2000/svg" id="Group_1078" width="172.009" height="53.298" data-name="Group 1078" viewBox="0 0 172.009 53.298">
    <path id="Path_570" fill="#fff" d="M110.711 17.5A21.871 21.871 0 0 1 89 39.527H-29.886A21.872 21.872 0 0 1-51.6 17.5v-.767A21.872 21.872 0 0 1-29.886-5.294H89a21.872 21.872 0 0 1 21.714 22.028zM89.52-8.924H-30.413a26.085 26.085 0 0 0-26.038 26.132v1.033a26.087 26.087 0 0 0 26.038 26.133H89.52a26.087 26.087 0 0 0 26.038-26.132v-1.034A26.085 26.085 0 0 0 89.52-8.924M79.944 9.749a.585.585 0 0 0-.574-.6h-3.939a.585.585 0 0 0-.574.6v5.606h15.262l-.009 13.31a2.349 2.349 0 0 1-2.31 2.384H67a2.351 2.351 0 0 1-2.313-2.384L64.7 24.9h10.157v.8a.58.58 0 0 0 .574.589h3.938a.58.58 0 0 0 .574-.589l.009-5.588H64.7l-.018-13.33A2.35 2.35 0 0 1 66.995 4.4H87.8a2.348 2.348 0 0 1 2.31 2.382l.009 3.8H79.953v-.37zM62.26 9.163h-1.913l.015 19.505a2.339 2.339 0 0 1-2.295 2.381h-20.7a2.343 2.343 0 0 1-2.3-2.381V9.163H33.19V4.4h11.987l-.018 21.3a.58.58 0 0 0 .571.589h3.924a.58.58 0 0 0 .574-.589l-.011-21.3H62.26zM30.765 28.6v.065a2.372 2.372 0 0 1-2.354 2.384h-25.5v-4.762h1.94V9.157H2.915V4.4h25.5a2.372 2.372 0 0 1 2.354 2.384v8.7a2.371 2.371 0 0 1-2.369 2.24 2.371 2.371 0 0 1 2.36 2.381zm-29.07 2.449H-8.634l-2.466-6.186h-9.488s-2.348 6.216-2.4 6.183h-8.019v-4.759h1.9l6.843-17.122h-1.9V4.4h15.2l8.737 21.887h1.922zM87.833-1.657h-117.77a18.165 18.165 0 0 0-18.031 18.3v.951A18.166 18.166 0 0 0-29.937 35.9h117.77a18.168 18.168 0 0 0 18.034-18.3v-.951a18.167 18.167 0 0 0-18.034-18.3m-67.3 10.9h-4.3V15.3h4.3a.56.56 0 0 0 .548-.572v-4.9a.565.565 0 0 0-.548-.577M-18.9 20.146h6.056l-2.979-7.267zm39.425 0h-4.3V26.2h4.3a.562.562 0 0 0 .548-.574v-4.9a.568.568 0 0 0-.548-.58" data-name="Path 570" transform="translate(56.451 8.924)"/>
</svg>
